<svg width="720" height="520" viewBox="0 0 720 520" fill="none" xmlns="http://www.w3.org/2000/svg">
  <rect width="720" height="520" rx="36" fill="#0F1726"/>
  <circle cx="109" cy="110" r="54" fill="#1D314B"/>
  <circle cx="621" cy="92" r="42" fill="#15364A"/>
  <rect x="58" y="64" width="604" height="392" rx="28" fill="#131D2E" stroke="#2C405D"/>
  <rect x="92" y="102" width="188" height="224" rx="24" fill="#172335" stroke="#30435F"/>
  <rect x="114" y="132" width="144" height="14" rx="7" fill="#2A4669"/>
  <rect x="114" y="160" width="118" height="12" rx="6" fill="#203654"/>
  <rect x="114" y="198" width="144" height="54" rx="18" fill="#1A2A41"/>
  <rect x="114" y="270" width="112" height="18" rx="9" fill="#49BAD5"/>
  <rect x="304" y="102" width="324" height="118" rx="26" fill="#214F6F"/>
  <rect x="332" y="134" width="116" height="15" rx="7.5" fill="#A5E6F2"/>
  <rect x="332" y="163" width="224" height="13" rx="6.5" fill="#D5EDF5" fill-opacity="0.72"/>
  <rect x="332" y="185" width="184" height="13" rx="6.5" fill="#D5EDF5" fill-opacity="0.46"/>
  <rect x="304" y="242" width="324" height="174" rx="26" fill="#172335" stroke="#30435F"/>
  <path d="M344 362C369.333 328.667 394.667 312 420 312C445.333 312 470.667 330 496 330C521.333 330 546.667 302.667 572 248" stroke="#49BAD5" stroke-width="12" stroke-linecap="round"/>
  <circle cx="346" cy="359" r="10" fill="#49BAD5"/>
  <circle cx="420" cy="313" r="10" fill="#49BAD5"/>
  <circle cx="493" cy="330" r="10" fill="#88D8EB"/>
  <circle cx="571" cy="250" r="10" fill="#88D8EB"/>
  <rect x="344" y="384" width="92" height="14" rx="7" fill="#2A4669"/>
  <rect x="447" y="384" width="74" height="14" rx="7" fill="#214F6F"/>
  <rect x="532" y="384" width="54" height="14" rx="7" fill="#203654"/>
</svg>
