<svg width="520" height="420" viewBox="0 0 520 420" fill="none" xmlns="http://www.w3.org/2000/svg">
  <rect width="520" height="420" rx="32" fill="#FFF9F2"/>
  <rect x="42" y="42" width="436" height="336" rx="28" fill="#FCF5EC" stroke="#D9C8B9"/>
  <rect x="74" y="82" width="372" height="164" rx="24" fill="#FFFFFF" stroke="#E4D5C6"/>
  <rect x="98" y="108" width="212" height="14" rx="7" fill="#EADFD3"/>
  <rect x="98" y="136" width="308" height="12" rx="6" fill="#EFE6DC"/>
  <rect x="98" y="158" width="286" height="12" rx="6" fill="#EFE6DC"/>
  <rect x="98" y="180" width="248" height="12" rx="6" fill="#EFE6DC"/>
  <rect x="74" y="270" width="206" height="74" rx="22" fill="#1F4E4B"/>
  <rect x="300" y="270" width="146" height="74" rx="22" fill="#C55C3A"/>
  <rect x="102" y="294" width="116" height="12" rx="6" fill="#BAE6E0"/>
  <rect x="102" y="316" width="88" height="12" rx="6" fill="#E5F4F1" fill-opacity="0.7"/>
  <rect x="328" y="294" width="72" height="12" rx="6" fill="#FCE3D6"/>
  <rect x="328" y="316" width="92" height="12" rx="6" fill="#FFF2EA" fill-opacity="0.82"/>
</svg>
