<svg width="520" height="420" viewBox="0 0 520 420" fill="none" xmlns="http://www.w3.org/2000/svg">
  <rect width="520" height="420" rx="32" fill="#0F1726"/>
  <rect x="42" y="42" width="436" height="336" rx="28" fill="#131D2E" stroke="#2B3F5A"/>
  <rect x="74" y="82" width="372" height="164" rx="24" fill="#172335" stroke="#31445F"/>
  <rect x="98" y="108" width="212" height="14" rx="7" fill="#2A4669"/>
  <rect x="98" y="136" width="308" height="12" rx="6" fill="#223754"/>
  <rect x="98" y="158" width="286" height="12" rx="6" fill="#223754"/>
  <rect x="98" y="180" width="248" height="12" rx="6" fill="#223754"/>
  <rect x="74" y="270" width="206" height="74" rx="22" fill="#214F6F"/>
  <rect x="300" y="270" width="146" height="74" rx="22" fill="#49BAD5"/>
  <rect x="102" y="294" width="116" height="12" rx="6" fill="#B6E7F2"/>
  <rect x="102" y="316" width="88" height="12" rx="6" fill="#D5EDF5" fill-opacity="0.64"/>
  <rect x="328" y="294" width="72" height="12" rx="6" fill="#DFF5FB"/>
  <rect x="328" y="316" width="92" height="12" rx="6" fill="#F0FBFF" fill-opacity="0.82"/>
</svg>
